PathFileType	4	(X/Y/Z)	D:\luciana\glass.trc
DataRate	CameraRate	NumFrames	NumMarkers	Units	OrigDataRate	OrigDataStartFrame	OrigNumFrames
250.00	250.00	18	19	mm	250.00	1006	2010
Frame#	Time	pelvisR			PelvisL			Trunk1			Trunk2			Trunk3			C7			shoulder			upperArm1			upperArm2			upperArm3			elbow			forearm1			forearm2			forearm3			wrist1			wrist2			wrist3			Object			Hand			
		X1	Y1	Z1	X2	Y2	Z2	X3	Y3	Z3	X4	Y4	Z4	X5	Y5	Z5	X6	Y6	Z6	X7	Y7	Z7	X8	Y8	Z8	X9	Y9	Z9	X10	Y10	Z10	X11	Y11	Z11	X12	Y12	Z12	X13	Y13	Z13	X14	Y14	Z14	X15	Y15	Z15	X16	Y16	Z16	X17	Y17	Z17	X18	Y18	Z18	X19	Y19	Z19	

1005	4.020000	1733.672500	646.506011	680.922508	1398.609281	648.931026	668.058217	1612.459183	846.954107	938.322186	1643.369794	758.446693	922.339141	1552.866459	792.666912	922.270775	1567.327261	1127.762556	835.220873	1737.959623	1056.433082	767.773628	1813.637257	912.109733	637.857080	1799.121022	868.241072	699.023724	1743.169308	945.665061	622.518182	1758.565903	809.696615	557.308853	1781.240106	779.413223	478.398681	1731.791615	834.867299	474.309295	1745.808363	722.697794	524.899602	1706.344008	779.139996	344.850689	1705.261111	701.592088	366.305888	1642.581105	807.455778	372.766644	1570.385933	768.101096	245.834514	1645.507216	737.825930	269.535720	
1006	4.024000	1733.657360	646.502793	680.913210	1398.572803	648.956656	668.061078	1612.468958	846.968651	938.304543	1643.408418	758.490086	922.354341	1552.870631	792.678714	922.270775	1567.330599	1127.768874	835.206926	1737.965584	1056.441665	767.760992	1813.359737	911.981404	637.751460	1799.128056	868.236959	699.019253	1743.152618	945.632041	622.504830	1758.534312	809.673488	557.325959	1781.230927	779.356301	478.422791	1731.813669	834.849834	474.316061	1745.759964	722.673774	524.913907	1706.370592	779.094160	344.838560	1705.232382	701.548696	366.311580	1642.619729	807.450771	372.736931	1570.404053	768.097103	245.831698	1645.505071	737.777114	269.537628	
1007	4.028000	1733.658075	646.512687	680.915713	1398.531795	648.967683	668.102741	1612.458944	846.987605	938.286602	1643.416882	758.505106	922.345877	1552.864075	792.682052	922.252297	1567.330956	1127.771854	835.192382	1737.970114	1056.441307	767.746449	1813.002825	911.822796	637.622714	1799.130797	868.240237	699.010849	1743.141651	945.611835	622.498274	1758.495569	809.647083	557.348371	1781.215906	779.318392	478.440791	1731.830120	834.825039	474.319398	1745.717168	722.644985	524.928689	1706.390858	779.045165	344.838679	1705.176592	701.500833	366.325140	1642.663717	807.455361	372.709036	1570.414424	768.095195	245.844245	1645.506620	737.716377	269.543976	
1008	4.032000	1733.663082	646.517634	680.922151	1398.499250	648.972332	668.103576	1612.456679	846.971154	938.268125	1643.416405	758.512259	922.330439	1552.865982	792.694092	922.241211	1567.333937	1127.772570	835.178137	1737.979412	1056.443214	767.723799	1813.463807	912.017465	637.753487	1799.127102	868.245184	698.997796	1743.128657	945.591390	622.485161	1758.443713	809.625089	557.357311	1781.193495	779.278994	478.464216	1731.826186	834.798992	474.312097	1745.668530	722.616315	524.952710	1706.418514	778.996706	344.840825	1705.164909	701.463342	366.327643	1642.706394	807.457626	372.682244	1570.415258	768.089294	245.833963	1645.504713	737.679958	269.525796	
1009	4.036000	1733.663797	646.521688	680.923522	1398.551106	648.936570	668.091714	1612.471104	846.964478	938.249230	1643.407345	758.521378	922.311008	1552.866697	792.695701	922.225475	1567.322731	1127.758980	835.163355	1737.974882	1056.449890	767.712593	1813.568354	912.044942	637.770057	1799.126387	868.241072	698.986888	1743.125916	945.594728	622.464538	1758.404732	809.612513	557.350755	1781.174898	779.224992	478.476405	1731.828690	834.763229	474.312097	1745.618343	722.596765	524.971247	1706.451654	778.943181	344.839007	1705.127239	701.439261	366.355240	1642.742395	807.454824	372.659922	1570.431590	768.092394	245.823935	1645.497561	737.644613	269.516975	
1010	4.040000	1733.656645	646.521747	680.918813	1398.569465	648.908734	668.057799	1612.465262	846.961021	938.223124	1643.398643	758.523524	922.302425	1552.869201	792.699993	922.211289	1567.301393	1127.745271	835.141540	1737.985730	1056.456447	767.719626	1813.574791	912.031472	637.769639	1799.127817	868.234575	698.977411	1743.112445	945.581198	622.465134	1758.365870	809.589148	557.368517	1781.163216	779.176235	478.500158	1731.836319	834.736288	474.318445	1745.576859	722.576916	525.002897	1706.482649	778.873205	344.837368	1705.051184	701.398373	366.419315	1642.775893	807.449877	372.628599	1570.440173	768.090487	245.826766	1645.496607	737.582803	269.523919	
1011	4.044000	1733.653545	646.520019	680.916071	1398.620009	648.879945	668.054819	1612.450123	846.965671	938.222051	1643.388629	758.510113	922.291160	1552.867055	792.705178	922.198594	1567.298532	1127.733707	835.135877	1737.984061	1056.463718	767.707765	1813.566327	912.011385	637.764037	1799.118161	868.226647	698.967636	1743.095040	945.564389	622.455120	1758.332253	809.579492	557.389915	1781.146526	779.140890	478.538334	1731.838703	834.705532	474.327505	1745.539904	722.555637	525.034666	1706.512809	778.807521	344.843924	1705.006599	701.356530	366.445869	1642.807961	807.439208	372.602403	1570.424795	768.075824	245.825648	1645.474553	737.528265	269.520283	
1012	4.048000	1733.654499	646.525681	680.920660	1398.580432	648.869395	668.043256	1612.433672	846.959114	938.204348	1643.383265	758.502543	922.267795	1552.872062	792.704225	922.188699	1567.286253	1127.737045	835.120082	1737.980485	1056.482911	767.688751	1813.273668	911.875069	637.660146	1799.115419	868.231893	698.974431	1743.090272	945.559263	622.449934	1758.315086	809.546828	557.400942	1781.129003	779.110610	478.558600	1731.855869	834.673584	474.336445	1745.496511	722.533762	525.064528	1706.537604	778.746247	344.846666	1705.010414	701.306224	366.464347	1642.838001	807.423949	372.579038	1570.425630	768.065333	245.834514	1645.459652	737.482548	269.517273	
1013	4.052000	1733.657598	646.529675	680.920243	1398.547173	648.868978	668.035626	1612.455130	846.975982	938.180685	1643.383265	758.509755	922.252357	1552.881002	792.703867	922.181249	1567.273855	1127.755523	835.103393	1737.986207	1056.480885	767.682254	1812.916994	911.711395	637.546062	1799.112678	868.240476	698.980331	1743.085265	945.555568	622.452140	1758.281827	809.523582	557.423115	1781.105995	779.067993	478.600204	1731.863737	834.643722	474.352717	1745.448112	722.506762	525.088906	1706.565619	778.682828	344.864130	1704.926848	701.242745	366.532564	1642.891526	807.421386	372.565269	1570.438862	768.072903	245.837256	1645.450711	737.405300	269.513071	
1014	4.056000	1733.656883	646.530509	680.914342	1398.575544	648.868978	668.047130	1612.458467	846.981883	938.175082	1643.401384	758.518517	922.242999	1552.882671	792.708397	922.166049	1567.270279	1127.766728	835.085273	1737.993121	1056.483746	767.673790	1813.383698	911.912739	637.690008	1799.107432	868.243277	698.986769	1743.075371	945.557952	622.422576	1758.234262	809.522986	557.447553	1781.094313	779.034317	478.631854	1731.857300	834.622979	474.363595	1745.402575	722.480536	525.108099	1706.604242	778.613567	344.873428	1704.837799	701.176465	366.600245	1642.941594	807.421982	372.552276	1570.453405	768.075109	245.832503	1645.435810	737.346411	269.514829	
1015	4.060000	1733.655691	646.533608	680.913210	1398.535252	648.901880	668.026030	1612.451553	846.976757	938.174844	1643.393040	758.522928	922.222614	1552.872419	792.712092	922.143936	1567.296147	1127.769589	835.061371	1738.001347	1056.502342	767.667770	1813.498616	911.965430	637.720823	1799.098492	868.246078	698.986173	1743.070602	945.548773	622.403860	1758.199215	809.534311	557.458222	1781.075716	778.993905	478.656620	1731.873035	834.600210	474.372864	1745.363235	722.458303	525.126696	1706.646442	778.546333	344.879389	1704.774499	701.111257	366.630435	1642.993450	807.424366	372.531682	1570.470929	768.073916	245.835766	1645.424128	737.292230	269.521296	
1016	4.064000	1733.664274	646.531940	680.922329	1398.573995	648.906648	668.019772	1612.468600	846.990049	938.158393	1643.400669	758.535624	922.208786	1552.878141	792.711914	922.132790	1567.298412	1127.769470	835.049450	1738.002658	1056.515455	767.669022	1813.250065	911.859870	637.640893	1799.098611	868.255913	698.974490	1743.056059	945.550561	622.395933	1758.175850	809.529781	557.469666	1781.053543	778.954804	478.673518	1731.884003	834.580243	474.388421	1745.321751	722.435474	525.152206	1706.682801	778.476357	344.874501	1704.701900	701.071560	366.643250	1643.048048	807.428241	372.508258	1570.476651	768.079400	245.838463	1645.413876	737.213254	269.516379	
1017	4.068000	1733.661771	646.531284	680.924475	1398.645163	648.895502	668.024659	1612.470508	846.990824	938.148975	1643.413782	758.549213	922.198236	1552.896500	792.718947	922.131360	1567.275643	1127.782464	835.046828	1737.984657	1056.518078	767.672837	1812.909842	911.723614	637.538791	1799.100876	868.272424	698.978126	1743.042469	945.551634	622.385383	1758.155107	809.512794	557.494223	1781.044126	778.924346	478.697598	1731.895328	834.564745	474.405050	1745.273709	722.413421	525.169373	1706.715345	778.403163	344.869882	1704.645872	701.011896	366.668016	1643.099546	807.427704	372.491211	1570.481300	768.078744	245.838925	1645.411968	737.142146	269.532800	
1018	4.072000	1733.661532	646.533132	680.910587	1398.609400	648.917675	668.024659	1612.477779	847.012222	938.139856	1643.433452	758.576155	922.196269	1552.893162	792.723775	922.124505	1567.266703	1127.786279	835.036695	1737.975717	1056.530237	767.679632	1813.389301	911.958158	637.687027	1799.104333	868.286312	698.982239	1743.039608	945.563555	622.388065	1758.126140	809.494436	557.514071	1781.032085	778.892279	478.719175	1731.917620	834.549606	474.409819	1745.228648	722.386956	525.185704	1706.740856	778.323352	344.869882	1704.579115	700.924039	366.741151	1643.145800	807.425857	372.473598	1570.485592	768.083453	245.830417	1645.404339	737.066627	269.547850	
1019	4.076000	1733.675599	646.538794	680.910289	1398.600578	648.902535	668.029845	1612.451196	847.021043	938.128233	1643.436193	758.589208	922.183692	1552.881718	792.723596	922.112346	1567.285895	1127.804160	835.015774	1737.967730	1056.533217	767.673612	1813.514709	912.041664	637.722671	1799.120545	868.303537	698.992491	1743.042231	945.576727	622.397721	1758.098960	809.487402	557.525516	1781.014204	778.857648	478.756428	1731.921554	834.530532	474.415541	1745.193005	722.365022	525.206089	1706.772685	778.243542	344.867170	1704.514027	700.827956	366.821736	1643.187284	807.420731	372.458845	1570.494413	768.087983	245.812371	1645.371318	736.983776	269.531369	
1020	4.080000	1733.683825	646.541595	680.901706	1398.646355	648.905873	668.010235	1612.467051	847.037196	938.121557	1643.427134	758.594394	922.169089	1552.883506	792.725623	922.089100	1567.271233	1127.803802	835.012376	1737.959146	1056.545496	767.668009	1813.545465	912.085295	637.733221	1799.135327	868.329227	698.996782	1743.022919	945.572674	622.378290	1758.067966	809.482813	557.535768	1780.998230	778.825283	478.799582	1731.934190	834.509015	474.430859	1745.155096	722.349942	525.232792	1706.809044	778.156996	344.866127	1704.475760	700.758934	366.839647	1643.244624	807.412863	372.432768	1570.490360	768.084645	245.823339	1645.347595	736.896276	269.526839	
1021	4.084000	1733.685255	646.537423	680.896044	1398.654580	648.914874	668.007970	1612.481356	847.062051	938.115478	1643.438339	758.588850	922.159851	1552.887678	792.740285	922.073126	1567.249060	1127.805233	835.008025	1737.959504	1056.556463	767.667413	1813.547850	912.108183	637.731671	1799.147725	868.346930	698.984265	1743.006945	945.587099	622.384429	1758.059263	809.490383	557.535648	1780.993223	778.779984	478.820354	1731.947899	834.480584	474.438071	1745.122433	722.333908	525.262058	1706.843495	778.069139	344.862998	1704.413652	700.692415	366.897106	1643.304586	807.408333	372.402638	1570.490599	768.094897	245.830610	1645.329475	736.812770	269.533813	
1022	4.088000	1733.692408	646.541834	680.892050	1398.584127	648.904443	668.007731	1612.458348	847.055495	938.105762	1643.442273	758.594930	922.141910	1552.882671	792.746603	922.068238	1567.240953	1127.808332	835.000277	1737.965584	1056.573033	767.675400	1813.275933	912.016213	637.637198	1799.164295	868.364930	698.974371	1742.997408	945.616126	622.403860	1758.038402	809.488654	557.557344	1780.994058	778.744280	478.836834	1731.961131	834.442437	474.448532	1745.084882	722.313404	525.284588	1706.876755	777.984202	344.858319	1704.310417	700.617611	366.950244	1643.368244	807.405591	372.381866	1570.488811	768.089712	245.813340	1645.295143	736.728311	269.537240	
